<svg version="1.1" xmlns="http://www.w3.org/2000/svg" width="512" height="512" viewBox="0 0 512 512">
<path fill="#a5f4ff" d="M496.327 449.306h-480.654c-8.655 0-15.673-7.017-15.673-15.673v-355.266c0-8.656 7.018-15.673 15.673-15.673h480.653c8.656 0 15.673 7.018 15.673 15.673v355.265c0.001 8.657-7.017 15.674-15.672 15.674z"></path>
<path fill="#ffea8c" d="M256 231.441c-28.808 0-52.245-23.437-52.245-52.245s23.437-52.245 52.245-52.245 52.245 23.437 52.245 52.245-23.437 52.245-52.245 52.245z"></path>
<path fill="#6ddbc9" d="M512 243.835v189.797c0 8.656-7.018 15.673-15.673 15.673h-337.29c54.408-140.359 198.976-228.077 352.963-205.47z"></path>
<path fill="#69f4db" d="M0 243.835v189.797c0 8.656 7.018 15.673 15.673 15.673h337.29c-54.41-140.359-198.976-228.077-352.963-205.47z"></path>
</svg>
